<?xml version="1.0" encoding="UTF-8" standalone="no"?>
<!DOCTYPE svg PUBLIC "-//W3C//DTD SVG 1.1//EN"
 "http://www.w3.org/Graphics/SVG/1.1/DTD/svg11.dtd">
<!-- Generated by graphviz version 2.43.0 (0)
 -->
<!-- Title: %3 Pages: 1 -->
<svg width="228pt" height="260pt"
 viewBox="0.00 0.00 228.00 260.00" xmlns="http://www.w3.org/2000/svg" xmlns:xlink="http://www.w3.org/1999/xlink">
<g id="graph0" class="graph" transform="scale(1 1) rotate(0) translate(4 256)">
<title>%3</title>
<polygon fill="white" stroke="transparent" points="-4,4 -4,-256 224,-256 224,4 -4,4"/>
<!-- 1 -->
<g id="node1" class="node">
<title>1</title>
<ellipse fill="none" stroke="black" cx="129" cy="-234" rx="27" ry="18"/>
<text text-anchor="middle" x="129" y="-230.3" font-family="Times,serif" font-size="14.00">1</text>
</g>
<!-- 2 -->
<g id="node2" class="node">
<title>2</title>
<ellipse fill="none" stroke="black" cx="27" cy="-162" rx="27" ry="18"/>
<text text-anchor="middle" x="27" y="-158.3" font-family="Times,serif" font-size="14.00">2</text>
</g>
<!-- 1&#45;&gt;2 -->
<g id="edge1" class="edge">
<title>1&#45;&gt;2</title>
<path fill="none" stroke="black" d="M110.76,-220.49C94.81,-209.54 71.43,-193.49 53.43,-181.14"/>
<polygon fill="black" stroke="black" points="55.3,-178.18 45.08,-175.41 51.34,-183.95 55.3,-178.18"/>
</g>
<!-- 3 -->
<g id="node3" class="node">
<title>3</title>
<ellipse fill="none" stroke="black" cx="65" cy="-90" rx="27" ry="18"/>
<text text-anchor="middle" x="65" y="-86.3" font-family="Times,serif" font-size="14.00">3</text>
</g>
<!-- 1&#45;&gt;3 -->
<g id="edge5" class="edge">
<title>1&#45;&gt;3</title>
<path fill="none" stroke="black" d="M121.53,-216.43C110.5,-191.96 89.75,-145.91 76.69,-116.94"/>
<polygon fill="black" stroke="black" points="79.72,-115.14 72.42,-107.46 73.34,-118.02 79.72,-115.14"/>
</g>
<!-- 4 -->
<g id="node4" class="node">
<title>4</title>
<ellipse fill="none" stroke="black" cx="129" cy="-18" rx="27" ry="18"/>
<text text-anchor="middle" x="129" y="-14.3" font-family="Times,serif" font-size="14.00">4</text>
</g>
<!-- 1&#45;&gt;4 -->
<g id="edge6" class="edge">
<title>1&#45;&gt;4</title>
<path fill="none" stroke="black" d="M125.12,-215.85C121.58,-178.74 121.31,-90.75 124.33,-46.05"/>
<polygon fill="black" stroke="black" points="127.83,-46.18 125.14,-35.94 120.85,-45.62 127.83,-46.18"/>
</g>
<!-- 5 -->
<g id="node5" class="node">
<title>5</title>
<ellipse fill="none" stroke="black" cx="193" cy="-162" rx="27" ry="18"/>
<text text-anchor="middle" x="193" y="-158.3" font-family="Times,serif" font-size="14.00">5</text>
</g>
<!-- 1&#45;&gt;5 -->
<g id="edge7" class="edge">
<title>1&#45;&gt;5</title>
<path fill="none" stroke="black" d="M142.57,-218.15C151.31,-208.6 162.83,-195.99 172.66,-185.25"/>
<polygon fill="black" stroke="black" points="175.28,-187.57 179.45,-177.82 170.12,-182.84 175.28,-187.57"/>
</g>
<!-- 2&#45;&gt;3 -->
<g id="edge2" class="edge">
<title>2&#45;&gt;3</title>
<path fill="none" stroke="black" d="M35.81,-144.76C40.42,-136.28 46.16,-125.71 51.32,-116.2"/>
<polygon fill="black" stroke="black" points="54.54,-117.61 56.23,-107.15 48.39,-114.27 54.54,-117.61"/>
</g>
<!-- 3&#45;&gt;4 -->
<g id="edge3" class="edge">
<title>3&#45;&gt;4</title>
<path fill="none" stroke="black" d="M78.57,-74.15C87.31,-64.6 98.83,-51.99 108.66,-41.25"/>
<polygon fill="black" stroke="black" points="111.28,-43.57 115.45,-33.82 106.12,-38.84 111.28,-43.57"/>
</g>
<!-- 4&#45;&gt;1 -->
<g id="edge4" class="edge">
<title>4&#45;&gt;1</title>
<path fill="none" stroke="black" d="M132.86,-35.94C136.41,-72.85 136.69,-160.83 133.69,-205.69"/>
<polygon fill="black" stroke="black" points="130.18,-205.6 132.88,-215.85 137.16,-206.16 130.18,-205.6"/>
</g>
</g>
</svg>
